<mxfile host="app.diagrams.net" agent="Mozilla/5.0 (Windows NT 10.0; Win64; x64) AppleWebKit/537.36 (KHTML, like Gecko) Chrome/131.0.0.0 Safari/537.36" version="26.0.1">
  <diagram id="m9WsidW7QqAjyoEMNlAa" name="第 1 页">
    <mxGraphModel dx="1323" dy="743" grid="1" gridSize="10" guides="1" tooltips="1" connect="1" arrows="1" fold="1" page="0" pageScale="1" pageWidth="827" pageHeight="1169" background="none" math="0" shadow="0">
      <root>
        <mxCell id="0" />
        <mxCell id="1" parent="0" />
        <mxCell id="oW9dto42gi7ezwDTfF4M-5" style="edgeStyle=orthogonalEdgeStyle;rounded=0;orthogonalLoop=1;jettySize=auto;html=1;entryX=0.5;entryY=0;entryDx=0;entryDy=0;" edge="1" parent="1" source="d_DZ70Mudfyg9yd5zrVZ-1" target="oW9dto42gi7ezwDTfF4M-2">
          <mxGeometry relative="1" as="geometry" />
        </mxCell>
        <mxCell id="d_DZ70Mudfyg9yd5zrVZ-1" value="Start" style="strokeWidth=2;html=1;shape=mxgraph.flowchart.start_1;whiteSpace=wrap;fillColor=#dae8fc;strokeColor=#6c8ebf;" parent="1" vertex="1">
          <mxGeometry x="290" y="170" width="100" height="60" as="geometry" />
        </mxCell>
        <mxCell id="oW9dto42gi7ezwDTfF4M-8" value="" style="edgeStyle=orthogonalEdgeStyle;rounded=0;orthogonalLoop=1;jettySize=auto;html=1;" edge="1" parent="1" source="oW9dto42gi7ezwDTfF4M-2" target="oW9dto42gi7ezwDTfF4M-7">
          <mxGeometry relative="1" as="geometry" />
        </mxCell>
        <mxCell id="oW9dto42gi7ezwDTfF4M-2" value="Enter current password" style="shape=parallelogram;html=1;strokeWidth=2;perimeter=parallelogramPerimeter;whiteSpace=wrap;rounded=1;arcSize=12;size=0.23;fillColor=#d5e8d4;strokeColor=#82b366;" vertex="1" parent="1">
          <mxGeometry x="280" y="330" width="120" height="60" as="geometry" />
        </mxCell>
        <mxCell id="oW9dto42gi7ezwDTfF4M-12" style="edgeStyle=orthogonalEdgeStyle;rounded=0;orthogonalLoop=1;jettySize=auto;html=1;entryX=0.5;entryY=1;entryDx=0;entryDy=0;" edge="1" parent="1" source="oW9dto42gi7ezwDTfF4M-4" target="oW9dto42gi7ezwDTfF4M-11">
          <mxGeometry relative="1" as="geometry" />
        </mxCell>
        <mxCell id="oW9dto42gi7ezwDTfF4M-16" value="" style="edgeStyle=orthogonalEdgeStyle;rounded=0;orthogonalLoop=1;jettySize=auto;html=1;" edge="1" parent="1" source="oW9dto42gi7ezwDTfF4M-4" target="oW9dto42gi7ezwDTfF4M-15">
          <mxGeometry relative="1" as="geometry" />
        </mxCell>
        <mxCell id="oW9dto42gi7ezwDTfF4M-4" value="Correct password?" style="strokeWidth=2;html=1;shape=mxgraph.flowchart.decision;whiteSpace=wrap;fillColor=#e1d5e7;strokeColor=#9673a6;" vertex="1" parent="1">
          <mxGeometry x="280" y="640" width="120" height="80" as="geometry" />
        </mxCell>
        <mxCell id="oW9dto42gi7ezwDTfF4M-9" value="" style="edgeStyle=orthogonalEdgeStyle;rounded=0;orthogonalLoop=1;jettySize=auto;html=1;" edge="1" parent="1" source="oW9dto42gi7ezwDTfF4M-7" target="oW9dto42gi7ezwDTfF4M-4">
          <mxGeometry relative="1" as="geometry" />
        </mxCell>
        <mxCell id="oW9dto42gi7ezwDTfF4M-7" value="Verify current password" style="rounded=1;whiteSpace=wrap;html=1;absoluteArcSize=1;arcSize=14;strokeWidth=2;fillColor=#f8cecc;strokeColor=#b85450;" vertex="1" parent="1">
          <mxGeometry x="280" y="490" width="120" height="60" as="geometry" />
        </mxCell>
        <mxCell id="oW9dto42gi7ezwDTfF4M-13" style="edgeStyle=orthogonalEdgeStyle;rounded=0;orthogonalLoop=1;jettySize=auto;html=1;entryX=0.5;entryY=0;entryDx=0;entryDy=0;" edge="1" parent="1" source="oW9dto42gi7ezwDTfF4M-11" target="oW9dto42gi7ezwDTfF4M-2">
          <mxGeometry relative="1" as="geometry">
            <Array as="points">
              <mxPoint x="180" y="280" />
              <mxPoint x="340" y="280" />
            </Array>
          </mxGeometry>
        </mxCell>
        <mxCell id="oW9dto42gi7ezwDTfF4M-11" value="Output&amp;nbsp;&lt;div&gt;error message&lt;/div&gt;" style="shape=parallelogram;html=1;strokeWidth=2;perimeter=parallelogramPerimeter;whiteSpace=wrap;rounded=1;arcSize=12;size=0.23;fillColor=#d5e8d4;strokeColor=#82b366;" vertex="1" parent="1">
          <mxGeometry x="120" y="530" width="120" height="60" as="geometry" />
        </mxCell>
        <mxCell id="oW9dto42gi7ezwDTfF4M-18" value="" style="edgeStyle=orthogonalEdgeStyle;rounded=0;orthogonalLoop=1;jettySize=auto;html=1;" edge="1" parent="1" source="oW9dto42gi7ezwDTfF4M-15" target="oW9dto42gi7ezwDTfF4M-17">
          <mxGeometry relative="1" as="geometry" />
        </mxCell>
        <mxCell id="oW9dto42gi7ezwDTfF4M-15" value="Enter new&amp;nbsp;&lt;div&gt;password&lt;/div&gt;" style="shape=parallelogram;html=1;strokeWidth=2;perimeter=parallelogramPerimeter;whiteSpace=wrap;rounded=1;arcSize=12;size=0.23;fillColor=#d5e8d4;strokeColor=#82b366;" vertex="1" parent="1">
          <mxGeometry x="280" y="810" width="120" height="60" as="geometry" />
        </mxCell>
        <mxCell id="oW9dto42gi7ezwDTfF4M-21" value="" style="edgeStyle=orthogonalEdgeStyle;rounded=0;orthogonalLoop=1;jettySize=auto;html=1;" edge="1" parent="1" source="oW9dto42gi7ezwDTfF4M-17" target="oW9dto42gi7ezwDTfF4M-20">
          <mxGeometry relative="1" as="geometry" />
        </mxCell>
        <mxCell id="oW9dto42gi7ezwDTfF4M-17" value="&amp;gt;= 8 chars?" style="strokeWidth=2;html=1;shape=mxgraph.flowchart.decision;whiteSpace=wrap;fillColor=#e1d5e7;strokeColor=#9673a6;" vertex="1" parent="1">
          <mxGeometry x="280" y="960" width="120" height="80" as="geometry" />
        </mxCell>
        <mxCell id="oW9dto42gi7ezwDTfF4M-25" value="" style="edgeStyle=orthogonalEdgeStyle;rounded=0;orthogonalLoop=1;jettySize=auto;html=1;" edge="1" parent="1" source="oW9dto42gi7ezwDTfF4M-20" target="oW9dto42gi7ezwDTfF4M-24">
          <mxGeometry relative="1" as="geometry" />
        </mxCell>
        <mxCell id="oW9dto42gi7ezwDTfF4M-20" value="Contain upper and&amp;nbsp;&lt;div&gt;lower&amp;nbsp;&lt;span style=&quot;background-color: transparent; color: light-dark(rgb(0, 0, 0), rgb(255, 255, 255));&quot;&gt;case chars?&lt;/span&gt;&lt;/div&gt;" style="strokeWidth=2;html=1;shape=mxgraph.flowchart.decision;whiteSpace=wrap;fillColor=#e1d5e7;strokeColor=#9673a6;" vertex="1" parent="1">
          <mxGeometry x="255" y="1120" width="170" height="80" as="geometry" />
        </mxCell>
        <mxCell id="oW9dto42gi7ezwDTfF4M-34" value="" style="edgeStyle=orthogonalEdgeStyle;rounded=0;orthogonalLoop=1;jettySize=auto;html=1;" edge="1" parent="1" source="oW9dto42gi7ezwDTfF4M-24" target="oW9dto42gi7ezwDTfF4M-26">
          <mxGeometry relative="1" as="geometry" />
        </mxCell>
        <mxCell id="oW9dto42gi7ezwDTfF4M-24" value="Contain at least&lt;div&gt;&amp;nbsp;1 symbol?&lt;/div&gt;" style="strokeWidth=2;html=1;shape=mxgraph.flowchart.decision;whiteSpace=wrap;fillColor=#e1d5e7;strokeColor=#9673a6;" vertex="1" parent="1">
          <mxGeometry x="280" y="1280" width="120" height="80" as="geometry" />
        </mxCell>
        <mxCell id="oW9dto42gi7ezwDTfF4M-33" value="" style="edgeStyle=orthogonalEdgeStyle;rounded=0;orthogonalLoop=1;jettySize=auto;html=1;" edge="1" parent="1" source="oW9dto42gi7ezwDTfF4M-26" target="oW9dto42gi7ezwDTfF4M-29">
          <mxGeometry relative="1" as="geometry" />
        </mxCell>
        <mxCell id="oW9dto42gi7ezwDTfF4M-26" value="Change password" style="rounded=1;whiteSpace=wrap;html=1;absoluteArcSize=1;arcSize=14;strokeWidth=2;fillColor=#f8cecc;strokeColor=#b85450;" vertex="1" parent="1">
          <mxGeometry x="280" y="1450" width="120" height="60" as="geometry" />
        </mxCell>
        <mxCell id="oW9dto42gi7ezwDTfF4M-29" value="End" style="strokeWidth=2;html=1;shape=mxgraph.flowchart.start_1;whiteSpace=wrap;fillColor=#dae8fc;strokeColor=#6c8ebf;" vertex="1" parent="1">
          <mxGeometry x="290" y="1610" width="100" height="60" as="geometry" />
        </mxCell>
      </root>
    </mxGraphModel>
  </diagram>
</mxfile>
